/usr/bin/start-video-rec.sh: line 93: kill: (554) - No such process
ffmpeg version 2.8.17-0ubuntu0.1 Copyright (c) 2000-2020 the FFmpeg developers
  built with gcc 5.4.0 (Ubuntu 5.4.0-6ubuntu1~16.04.12) 20160609
  configuration: --prefix=/usr --extra-version=0ubuntu0.1 --build-suffix=-ffmpeg --toolchain=hardened --libdir=/usr/lib/x86_64-linux-gnu --incdir=/usr/include/x86_64-linux-gnu --cc=cc --cxx=g++ --enable-gpl --enable-shared --disable-stripping --disable-decoder=libopenjpeg --disable-decoder=libschroedinger --enable-avresample --enable-avisynth --enable-gnutls --enable-ladspa --enable-libass --enable-libbluray --enable-libbs2b --enable-libcaca --enable-libcdio --enable-libflite --enable-libfontconfig --enable-libfreetype --enable-libfribidi --enable-libgme --enable-libgsm --enable-libmodplug --enable-libmp3lame --enable-libopenjpeg --enable-libopus --enable-libpulse --enable-librtmp --enable-libschroedinger --enable-libshine --enable-libsnappy --enable-libsoxr --enable-libspeex --enable-libssh --enable-libtheora --enable-libtwolame --enable-libvorbis --enable-libvpx --enable-libwavpack --enable-libwebp --enable-libx265 --enable-libxvid --enable-libzvbi --enable-openal --enable-opengl --enable-x11grab --enable-libdc1394 --enable-libiec61883 --enable-libzmq --enable-frei0r --enable-libx264 --enable-libopencv
  libavutil      54. 31.100 / 54. 31.100
  libavcodec     56. 60.100 / 56. 60.100
  libavformat    56. 40.101 / 56. 40.101
  libavdevice    56.  4.100 / 56.  4.100
  libavfilter     5. 40.101 /  5. 40.101
  libavresample   2.  1.  0 /  2.  1.  0
  libswscale      3.  1.101 /  3.  1.101
  libswresample   1.  2.101 /  1.  2.101
  libpostproc    53.  3.100 / 53.  3.100
Input #0, matroska,webm, from '/home/seluser/videos/vid_chrome_or_firefox_40000.mkv':
  Metadata:
    ENCODER         : Lavf56.40.101
  Duration: 00:01:51.90, start: 0.000000, bitrate: 81 kb/s
    Stream #0:0: Video: h264 (Constrained Baseline), yuv420p, 1366x768, SAR 1:1 DAR 683:384, 10 fps, 10 tbr, 1k tbn, 20 tbc (default)
    Metadata:
      ENCODER         : Lavc56.60.100 libx264
      DURATION        : 00:01:51.900000000
[libx264 @ 0xe176c0] using SAR=1/1
[libx264 @ 0xe176c0] using cpu capabilities: MMX2 SSE2Fast SSSE3 SSE4.2 AVX FMA3 AVX2 LZCNT BMI2
[libx264 @ 0xe176c0] profile Constrained Baseline, level 3.2
[libx264 @ 0xe176c0] 264 - core 148 r2643 5c65704 - H.264/MPEG-4 AVC codec - Copyleft 2003-2015 - http://www.videolan.org/x264.html - options: cabac=0 ref=1 deblock=0:0:0 analyse=0:0 me=dia subme=0 psy=1 psy_rd=1.00:0.00 mixed_ref=0 me_range=16 chroma_me=1 trellis=0 8x8dct=0 cqm=0 deadzone=21,11 fast_pskip=1 chroma_qp_offset=0 threads=3 lookahead_threads=1 sliced_threads=0 nr=0 decimate=1 interlaced=0 bluray_compat=0 constrained_intra=0 bframes=0 weightp=0 keyint=250 keyint_min=10 scenecut=0 intra_refresh=0 rc=crf mbtree=0 crf=23.0 qcomp=0.60 qpmin=0 qpmax=69 qpstep=4 ip_ratio=1.40 aq=0
Output #0, mp4, to '/home/seluser/videos/vid_chrome_or_firefox_40000.mp4':
  Metadata:
    encoder         : Lavf56.40.101
    Stream #0:0: Video: h264 (libx264) ([33][0][0][0] / 0x0021), yuv420p, 1366x768 [SAR 1:1 DAR 683:384], q=-1--1, 10 fps, 10240 tbn, 10 tbc (default)
    Metadata:
      DURATION        : 00:01:51.900000000
      encoder         : Lavc56.60.100 libx264
Stream mapping:
  Stream #0:0 -> #0:0 (h264 (native) -> h264 (libx264))
Press [q] to stop, [?] for help
frame=   53 fps=0.0 q=9.0 size=     120kB time=00:00:04.90 bitrate= 200.1kbits/s    
frame=  109 fps=106 q=9.0 size=     549kB time=00:00:10.50 bitrate= 428.5kbits/s    
frame=  185 fps=120 q=10.0 size=     553kB time=00:00:18.10 bitrate= 250.2kbits/s    
frame=  266 fps=130 q=9.0 size=     698kB time=00:00:26.20 bitrate= 218.3kbits/s    
frame=  344 fps=135 q=9.0 size=     701kB time=00:00:34.00 bitrate= 168.8kbits/s    
frame=  423 fps=139 q=9.0 size=     704kB time=00:00:41.90 bitrate= 137.6kbits/s    
frame=  496 fps=139 q=9.0 size=     706kB time=00:00:49.20 bitrate= 117.6kbits/s    
frame=  586 fps=144 q=9.0 size=     829kB time=00:00:58.20 bitrate= 116.7kbits/s    
frame=  657 fps=144 q=9.0 size=     831kB time=00:01:05.30 bitrate= 104.3kbits/s    
frame=  740 fps=146 q=9.0 size=     834kB time=00:01:13.60 bitrate=  92.8kbits/s    
frame=  808 fps=145 q=9.0 size=     956kB time=00:01:20.40 bitrate=  97.4kbits/s    
frame=  858 fps=141 q=9.0 size=     958kB time=00:01:25.40 bitrate=  91.9kbits/s    
frame=  941 fps=143 q=9.0 size=     961kB time=00:01:33.70 bitrate=  84.0kbits/s    
frame= 1031 fps=145 q=9.0 size=    1084kB time=00:01:42.70 bitrate=  86.4kbits/s    
frame= 1119 fps=148 q=-1.0 Lsize=    1097kB time=00:01:51.90 bitrate=  80.3kbits/s    
video:1091kB audio:0kB subtitle:0kB other streams:0kB global headers:0kB muxing overhead: 0.476475%
[libx264 @ 0xe176c0] frame I:5     Avg QP: 8.80  size:101141
[libx264 @ 0xe176c0] frame P:1114  Avg QP: 9.37  size:   549
[libx264 @ 0xe176c0] mb I  I16..4: 100.0%  0.0%  0.0%
[libx264 @ 0xe176c0] mb P  I16..4:  0.5%  0.0%  0.0%  P16..4:  0.5%  0.0%  0.0%  0.0%  0.0%    skip:99.0%
[libx264 @ 0xe176c0] coded y,uvDC,uvAC intra: 14.5% 9.1% 8.7% inter: 0.2% 0.2% 0.1%
[libx264 @ 0xe176c0] i16 v,h,dc,p: 71% 26%  2%  1%
[libx264 @ 0xe176c0] i8c dc,h,v,p: 81% 16%  2%  1%
[libx264 @ 0xe176c0] kb/s:79.86
